<svg id="svg" version="1.1" xmlns="http://www.w3.org/2000/svg" xmlns:xlink="http://www.w3.org/1999/xlink" width="400" height="400" viewBox="0, 0, 400,400"><g id="svgg"><path id="path0" d="M235.035 1.054 C 225.200 4.686,218.715 11.707,216.441 21.184 C 215.789 23.899,211.719 111.690,211.719 123.025 L 211.719 125.813 208.770 124.309 C 198.850 119.248,184.787 121.058,175.895 128.540 L 173.442 130.604 170.377 128.176 C 158.865 119.059,140.759 119.406,130.850 128.933 L 128.497 131.196 125.112 128.517 C 109.797 116.398,86.286 122.992,79.157 141.406 C 77.439 145.844,76.711 204.197,78.086 227.174 C 80.439 266.471,88.781 286.948,111.079 308.164 L 119.764 316.428 119.198 354.582 C 118.589 395.605,118.701 397.102,122.539 399.156 C 123.619 399.734,139.160 400.000,171.884 400.000 L 219.651 400.000 221.935 397.716 C 226.347 393.304,224.292 386.118,218.129 384.406 C 216.320 383.904,200.268 383.601,175.325 383.598 L 135.416 383.594 135.481 345.593 L 135.547 307.592 131.266 303.991 C 104.921 281.835,96.843 264.780,94.551 226.470 C 93.714 212.489,93.296 213.844,98.012 215.263 C 103.125 216.802,111.210 216.666,116.150 214.959 L 120.191 213.562 120.703 216.287 C 125.889 243.935,164.902 250.950,177.386 226.480 L 178.896 223.519 183.393 225.627 C 187.805 227.694,188.232 227.739,205.752 227.983 L 223.614 228.232 217.747 233.638 C 195.315 254.308,184.748 296.094,201.953 296.094 C 207.077 296.094,210.156 292.440,210.156 286.360 C 210.156 260.774,228.490 239.677,261.022 227.829 C 267.413 225.502,269.123 218.451,264.379 213.992 L 262.376 212.109 226.582 211.719 C 187.574 211.293,190.125 211.588,186.100 207.031 C 178.800 198.766,182.486 183.478,192.296 181.331 C 199.406 179.776,290.880 181.568,294.141 183.327 C 322.938 198.861,293.573 281.248,250.206 306.590 C 243.464 310.530,243.750 309.197,243.750 336.727 L 243.750 361.058 246.034 363.341 C 249.913 367.221,256.641 366.156,258.947 361.297 C 259.934 359.216,260.163 355.184,260.194 339.335 L 260.231 319.922 264.578 317.188 C 286.777 303.222,311.230 265.330,319.149 232.624 C 329.275 190.806,315.095 164.844,282.130 164.844 L 274.250 164.844 274.039 92.773 L 273.828 20.703 271.769 16.312 C 265.752 3.480,248.203 -3.809,235.035 1.054 M253.051 18.698 C 258.020 22.235,257.813 18.904,257.813 95.287 L 257.813 164.844 242.188 164.844 L 226.563 164.844 226.563 162.576 C 226.563 155.411,232.088 26.627,232.464 25.048 C 234.328 17.198,245.923 13.622,253.051 18.698 M157.723 139.657 C 159.216 140.360,161.341 142.440,162.605 144.433 L 164.844 147.962 164.844 181.037 C 164.844 217.608,164.884 217.276,159.868 221.681 C 152.958 227.747,142.048 225.333,138.213 216.888 C 136.489 213.091,135.929 154.047,137.561 148.168 C 139.950 139.566,149.222 135.651,157.723 139.657 M202.724 139.745 C 207.831 142.691,209.610 146.702,209.999 156.158 L 210.351 164.692 200.293 164.600 C 191.285 164.517,187.895 164.957,183.398 166.796 C 181.224 167.685,181.373 149.665,183.576 145.347 C 187.110 138.420,195.945 135.835,202.724 139.745 M112.602 140.316 C 119.203 143.637,119.682 145.843,119.380 171.547 L 119.141 191.922 116.889 194.872 C 111.441 202.011,101.292 201.566,96.080 193.961 L 94.141 191.130 94.141 169.588 C 94.141 149.452,94.243 147.874,95.703 145.394 C 99.401 139.116,106.173 137.081,112.602 140.316 M245.849 386.566 C 240.937 391.693,244.447 400.000,251.525 400.000 C 259.099 400.000,262.552 391.937,257.372 386.348 C 254.648 383.409,248.768 383.520,245.849 386.566 " stroke="none" fill="#000000" fill-rule="evenodd"></path></g></svg>