<svg id="svg" version="1.1" xmlns="http://www.w3.org/2000/svg" xmlns:xlink="http://www.w3.org/1999/xlink" width="400" height="400" viewBox="0, 0, 400,400"><g id="svgg"><path id="path0" d="M251.563 0.690 C 234.813 6.177,232.670 10.817,226.425 55.104 C 223.767 73.958,221.497 89.048,221.381 88.637 C 221.265 88.227,218.848 74.004,216.010 57.031 C 210.314 22.964,209.654 20.706,203.457 14.081 C 185.609 -5.000,152.988 6.517,151.748 32.337 C 151.493 37.641,159.143 108.252,161.338 120.852 L 161.772 123.344 159.206 122.585 C 150.158 119.911,136.230 123.164,130.468 129.297 L 128.770 131.106 124.465 128.090 C 109.307 117.472,88.738 122.542,80.717 138.875 L 78.516 143.359 78.267 184.766 C 77.794 263.373,84.201 286.255,113.609 310.988 L 119.363 315.827 118.940 354.602 C 118.483 396.477,118.527 397.009,122.613 399.196 C 123.596 399.722,140.490 400.000,171.484 400.000 C 202.478 400.000,219.372 399.722,220.356 399.196 C 226.196 396.070,224.766 386.249,218.205 384.427 C 216.298 383.898,200.853 383.601,175.075 383.598 L 134.915 383.594 135.464 347.461 C 136.101 305.497,136.495 308.137,128.647 301.803 C 105.347 282.997,96.297 262.744,94.782 226.017 L 94.292 214.143 98.052 215.275 C 102.881 216.728,111.200 216.723,116.050 215.263 C 118.140 214.634,119.901 214.195,119.965 214.286 C 120.030 214.378,120.501 216.166,121.014 218.260 C 127.546 244.945,163.598 250.294,177.158 226.589 C 178.272 224.641,179.277 222.921,179.391 222.766 C 179.505 222.612,180.585 223.186,181.791 224.041 C 186.684 227.511,190.540 228.125,207.427 228.125 L 223.394 228.125 215.751 235.742 C 194.611 256.809,185.390 294.122,200.890 295.869 C 206.986 296.556,209.427 293.624,210.180 284.713 C 212.382 258.648,229.839 238.345,258.153 228.923 C 265.659 226.425,268.368 222.307,266.090 216.855 C 263.941 211.711,264.003 211.719,226.797 211.716 C 189.175 211.713,190.481 211.907,186.398 205.695 C 181.406 198.097,182.023 191.191,188.252 184.962 L 191.964 181.250 239.590 181.250 C 280.545 181.250,287.794 181.421,291.337 182.474 C 324.122 192.210,296.632 276.395,251.012 305.965 C 242.612 311.410,242.816 310.560,243.120 338.790 L 243.359 361.068 245.911 363.346 C 249.474 366.529,253.906 366.527,257.091 363.341 L 259.375 361.058 259.375 340.796 L 259.375 320.534 263.511 317.788 C 305.080 290.188,333.838 217.689,316.757 183.559 C 310.788 171.632,298.292 164.844,282.307 164.844 L 275.098 164.844 275.456 162.305 C 277.674 146.561,289.080 27.642,288.700 24.226 C 286.852 7.608,267.631 -4.574,251.563 0.690 M267.045 17.993 C 268.631 18.959,270.245 20.945,271.201 23.107 L 272.764 26.641 266.061 92.422 C 262.374 128.602,259.147 159.684,258.891 161.494 L 258.425 164.784 223.158 165.009 C 188.197 165.232,187.862 165.250,184.570 167.008 L 181.250 168.782 181.250 158.987 C 181.250 151.593,179.622 135.510,174.609 93.382 C 170.957 62.687,167.969 36.093,167.969 34.285 C 167.969 24.698,179.067 18.024,187.493 22.543 C 194.335 26.213,193.598 23.421,203.951 84.844 C 215.344 152.437,214.464 148.025,216.954 149.984 C 221.019 153.182,227.747 151.643,229.562 147.101 C 230.041 145.903,234.159 118.379,238.712 85.938 C 247.691 21.973,247.755 21.671,253.045 18.165 C 256.585 15.820,263.345 15.736,267.045 17.993 M156.875 139.379 C 159.795 140.898,162.206 143.636,163.635 147.056 C 165.438 151.372,165.438 211.909,163.635 216.225 C 158.646 228.164,142.069 228.122,137.550 216.160 C 136.106 212.339,136.437 150.624,137.920 147.074 C 141.094 139.478,150.065 135.836,156.875 139.379 M113.342 140.839 C 119.465 144.965,119.531 145.273,119.531 169.531 C 119.531 193.789,119.465 194.098,113.342 198.224 C 107.899 201.892,100.454 199.964,96.308 193.811 C 93.538 189.702,93.538 149.361,96.308 145.251 C 99.036 141.202,102.744 139.063,107.031 139.063 C 109.560 139.063,111.529 139.617,113.342 140.839 M245.897 386.347 C 240.517 391.728,243.949 400.000,251.563 400.000 C 254.511 400.000,255.671 399.585,257.315 397.940 C 258.960 396.296,259.375 395.136,259.375 392.188 C 259.375 384.979,250.927 381.318,245.897 386.347 " stroke="none" fill="#000000" fill-rule="evenodd"></path></g></svg>