<svg id="svg" version="1.1" xmlns="http://www.w3.org/2000/svg" xmlns:xlink="http://www.w3.org/1999/xlink" width="400" height="400" viewBox="0, 0, 400,400"><g id="svgg"><path id="path0" d="M259.375 0.689 C 243.365 5.921,241.458 9.828,231.559 57.686 C 228.596 72.011,226.083 83.261,225.974 82.686 C 225.865 82.111,224.737 68.597,223.467 52.654 C 220.787 19.008,220.351 17.125,213.723 10.496 C 203.662 0.435,183.627 -0.225,172.682 9.144 C 161.773 18.481,160.330 27.383,162.197 73.828 C 162.474 80.703,162.516 86.152,162.290 85.938 C 162.065 85.723,158.105 74.473,153.490 60.938 C 142.760 29.467,141.766 27.501,133.984 22.342 C 113.719 8.906,87.162 22.810,87.276 46.796 C 87.307 53.368,87.559 54.250,98.712 86.914 L 110.116 120.313 105.981 120.313 C 93.599 120.312,82.556 128.642,78.819 140.800 C 76.936 146.926,76.960 229.636,78.849 242.578 C 83.462 274.189,93.324 293.792,112.958 310.378 L 118.708 315.234 118.729 355.558 L 118.750 395.881 120.810 397.940 L 122.869 400.000 170.861 400.000 C 202.283 400.000,219.372 399.722,220.356 399.196 C 226.196 396.070,224.766 386.249,218.205 384.427 C 216.299 383.898,200.888 383.601,175.195 383.598 L 135.156 383.594 135.156 346.446 C 135.156 306.491,135.151 306.434,131.095 303.714 C 115.469 293.236,103.348 275.715,98.360 256.396 C 94.440 241.211,91.999 204.596,94.989 205.811 C 109.829 211.847,127.888 204.570,133.662 190.229 C 135.496 185.673,135.547 184.969,135.537 164.063 L 135.527 142.578 119.636 96.484 C 108.395 63.880,103.724 49.325,103.675 46.750 C 103.502 37.684,113.625 31.045,122.095 34.669 C 127.803 37.111,127.843 37.206,146.559 92.227 C 166.092 149.649,165.544 148.438,171.947 148.438 C 174.450 148.438,175.629 147.929,177.529 146.029 L 179.938 143.620 179.419 115.755 C 179.134 100.430,178.670 75.022,178.388 59.293 L 177.876 30.695 179.658 27.015 C 184.207 17.617,199.258 15.985,203.618 24.417 C 204.697 26.504,213.915 131.836,214.043 143.542 C 214.081 146.938,218.185 150.391,222.184 150.391 C 229.446 150.391,228.298 154.025,242.644 85.578 C 255.864 22.504,256.176 21.350,260.900 18.167 C 268.110 13.308,280.454 18.569,280.466 26.505 C 280.468 28.029,261.321 151.575,259.668 160.705 L 259.215 163.207 224.316 163.439 L 189.416 163.672 184.275 166.204 C 162.765 176.797,160.432 207.179,179.992 221.962 C 186.301 226.730,189.435 227.344,207.490 227.344 L 223.394 227.344 215.751 234.961 C 194.285 256.353,185.105 295.313,201.530 295.313 C 207.495 295.312,210.156 291.890,210.156 284.217 C 210.156 261.475,227.596 240.371,255.575 229.255 C 267.766 224.411,270.668 219.122,264.379 213.211 L 262.376 211.328 227.477 210.938 C 190.059 210.519,190.903 210.616,187.270 206.298 C 180.935 198.770,181.840 188.570,189.386 182.464 L 192.333 180.078 240.112 180.078 C 293.994 180.078,293.289 180.008,299.223 185.942 C 319.869 206.588,291.626 278.911,252.962 304.404 C 243.042 310.945,243.750 308.470,243.750 336.624 C 243.750 360.725,243.759 360.861,245.534 362.924 C 248.407 366.264,253.686 366.497,257.115 363.436 L 259.766 361.068 260.156 340.344 L 260.547 319.621 265.234 316.342 C 303.201 289.784,331.549 224.017,319.939 189.430 C 314.270 172.542,303.716 165.088,283.158 163.453 L 276.083 162.891 286.505 96.875 C 299.194 16.503,299.163 17.804,288.624 7.836 C 281.708 1.295,267.868 -2.087,259.375 0.689 M112.628 138.447 C 118.675 141.846,119.107 143.401,119.392 162.827 C 119.685 182.819,119.169 185.274,113.859 189.120 C 108.168 193.243,100.765 192.008,96.329 186.197 L 94.141 183.329 93.907 165.297 C 93.677 147.604,93.708 147.200,95.528 143.750 C 98.959 137.247,106.391 134.942,112.628 138.447 M247.955 384.831 C 240.646 388.437,243.304 400.000,251.442 400.000 C 260.099 400.000,263.103 388.714,255.494 384.779 C 252.630 383.297,251.041 383.308,247.955 384.831 " stroke="none" fill="#000000" fill-rule="evenodd"></path></g></svg>